<svg width="20" height="17" viewBox="0 0 20 17" fill="none" xmlns="http://www.w3.org/2000/svg">
<path fill-rule="evenodd" clip-rule="evenodd" d="M5.3 6.45C6 7.15 6.9 7.5 8 7.5C9.1 7.5 10 7.15 10.7 6.45C11.4 5.75 11.75 4.85 11.75 3.75C11.75 2.65 11.4 1.75 10.7 1.05C10 0.35 9.1 0 8 0C6.9 0 6 0.35 5.3 1.05C4.6 1.75 4.25 2.65 4.25 3.75C4.25 4.85 4.6 5.75 5.3 6.45ZM0 13.175V15.525H8.95C8.78333 15.3083 8.64167 15.0792 8.525 14.8375C8.40833 14.5958 8.30833 14.325 8.225 14.025H1.5V13.175C1.5 12.925 1.56667 12.6792 1.7 12.4375C1.83333 12.1958 2.03333 12.0083 2.3 11.875C3.28333 11.3917 4.2375 11.0458 5.1625 10.8375C6.0875 10.6292 7.03333 10.525 8 10.525H8.225C8.25833 10.2083 8.3 9.9375 8.35 9.7125C8.4 9.4875 8.475 9.25833 8.575 9.025H8C7.05 9.025 6.0625 9.14167 5.0375 9.375C4.0125 9.60833 2.9 9.99167 1.7 10.525C1.15 10.775 0.729167 11.1333 0.4375 11.6C0.145833 12.0667 0 12.5917 0 13.175ZM9.6125 5.3625C9.1875 5.7875 8.65 6 8 6C7.35 6 6.8125 5.7875 6.3875 5.3625C5.9625 4.9375 5.75 4.4 5.75 3.75C5.75 3.1 5.9625 2.5625 6.3875 2.1375C6.8125 1.7125 7.35 1.5 8 1.5C8.65 1.5 9.1875 1.7125 9.6125 2.1375C10.0375 2.5625 10.25 3.1 10.25 3.75C10.25 4.4 10.0375 4.9375 9.6125 5.3625Z" fill="#3E414D"/>
<path fill-rule="evenodd" clip-rule="evenodd" d="M14.675 16.625L14.425 14.975C14.1417 14.8917 13.8542 14.7708 13.5625 14.6125C13.2708 14.4542 13.025 14.275 12.825 14.075L11.45 14.375L10.825 13.325L12 12.225C11.9667 12.075 11.95 11.8667 11.95 11.6C11.95 11.3333 11.9667 11.125 12 10.975L10.825 9.875L11.45 8.825L12.825 9.125C13.025 8.925 13.2708 8.74583 13.5625 8.5875C13.8542 8.42917 14.1417 8.30833 14.425 8.225L14.675 6.575H16.025L16.275 8.225C16.5583 8.30833 16.8458 8.42917 17.1375 8.5875C17.4292 8.74583 17.675 8.925 17.875 9.125L19.25 8.825L19.875 9.875L18.7 10.975C18.7333 11.125 18.75 11.3333 18.75 11.6C18.75 11.8667 18.7333 12.075 18.7 12.225L19.875 13.325L19.25 14.375L17.875 14.075C17.675 14.275 17.4292 14.4542 17.1375 14.6125C16.8458 14.7708 16.5583 14.8917 16.275 14.975L16.025 16.625H14.675ZM16.8 13.05C16.4333 13.4167 15.95 13.6 15.35 13.6C14.75 13.6 14.2667 13.4167 13.9 13.05C13.5333 12.6833 13.35 12.2 13.35 11.6C13.35 11 13.5333 10.5167 13.9 10.15C14.2667 9.78333 14.75 9.6 15.35 9.6C15.95 9.6 16.4333 9.78333 16.8 10.15C17.1667 10.5167 17.35 11 17.35 11.6C17.35 12.2 17.1667 12.6833 16.8 13.05Z" fill="#224DFF"/>
</svg>
